<?xml version="1.0" standalone="no"?>
<!DOCTYPE svg PUBLIC "-//W3C//DTD SVG 20010904//EN"
 "http://www.w3.org/TR/2001/REC-SVG-20010904/DTD/svg10.dtd">
<svg version="1.0" xmlns="http://www.w3.org/2000/svg"
 width="700.000000pt" height="700.000000pt" viewBox="0 0 700.000000 700.000000"
 preserveAspectRatio="xMidYMid meet">
<metadata>
Created by potrace 1.14, written by Peter Selinger 2001-2017
</metadata>
<g transform="translate(0.000000,700.000000) scale(0.100000,-0.100000)"
fill="#000000" stroke="none">
<path d="M2377 6984 c-1 -1 -41 -4 -88 -7 -227 -17 -500 -113 -656 -231 -117
-89 -243 -242 -313 -383 -26 -51 -93 -232 -89 -241 0 -1 -2 -15 -5 -30 -3 -15
-8 -40 -11 -57 -3 -16 -7 -41 -10 -55 -15 -75 -18 -313 -18 -1270 0 -1160 0
-1161 19 -1281 38 -237 129 -419 295 -589 135 -138 251 -215 409 -272 30 -10
64 -23 75 -28 24 -11 167 -47 220 -56 20 -3 47 -7 58 -9 63 -13 180 -19 312
-18 151 1 211 12 483 89 l22 6 0 -1276 0 -1276 345 0 345 0 0 609 0 610 458 1
c251 0 471 2 487 4 64 8 150 20 155 21 3 0 23 4 45 9 179 34 392 152 520 288
186 199 314 501 361 853 3 28 8 59 10 70 18 94 26 569 12 710 -20 198 -84 429
-164 588 -197 392 -514 605 -959 643 -114 9 -165 10 -168 0 -2 -6 -383 -10
-1003 -10 -660 -1 -999 -4 -998 -11 1 -5 48 -153 105 -327 l103 -318 180 -2
181 -3 0 -50 c1 -45 -8 -129 -19 -190 -9 -48 -58 -135 -101 -178 -108 -107
-273 -157 -500 -152 -334 8 -521 117 -573 335 -23 96 -25 197 -24 1234 0 1106
1 1151 41 1256 51 134 191 221 409 254 83 13 308 14 362 2 13 -3 42 -8 65 -11
22 -3 48 -8 57 -11 17 -5 43 -11 90 -19 15 -3 64 -17 109 -31 44 -14 83 -23
87 -20 3 4 18 43 33 89 38 111 167 491 174 510 7 18 -29 40 -140 86 -44 19
-89 38 -100 43 -21 9 -112 35 -154 44 -12 3 -51 11 -85 19 -77 18 -244 36
-359 39 -48 1 -89 1 -90 0z m2153 -3259 c255 -50 302 -71 408 -184 175 -186
220 -502 156 -1081 -13 -115 -44 -201 -101 -286 -104 -150 -231 -230 -423
-265 -59 -11 -778 -22 -805 -12 -7 2 -10 313 -9 921 1 504 2 918 3 920 2 5
738 -6 771 -13z"/>
</g>
</svg>
